<svg width="48" height="48" viewBox="0 0 48 48" fill="none" xmlns="http://www.w3.org/2000/svg">
<path d="M0 24C0 10.7452 10.7452 0 24 0C37.2548 0 48 10.7452 48 24C48 37.2548 37.2548 48 24 48C10.7452 48 0 37.2548 0 24Z" fill="#F8F8F8"/>
<path d="M29.9329 15.6669H11.5V35.1408H16.6304V28.8053H26.4612L30.9466 35.1408H36.6913L31.7453 28.7761C33.2814 28.5426 34.3873 27.9878 35.0632 27.1119C35.739 26.2361 36.077 24.8346 36.077 22.9661V21.5063C36.077 20.3968 35.9543 19.5209 35.7391 18.8494C35.524 18.1779 35.1553 17.5939 34.6331 17.0684C34.0801 16.5721 33.4658 16.2218 32.7284 15.9883C31.9911 15.7839 31.0694 15.6669 29.9329 15.6669ZM29.1034 24.5136H16.6304V19.9588H29.1034C29.8098 19.9588 30.3014 20.0754 30.5471 20.2799C30.7929 20.4843 30.9466 20.8638 30.9466 21.4186V23.0536C30.9466 23.6374 30.7929 24.0169 30.5471 24.2213C30.3014 24.4256 29.81 24.5133 29.1034 24.5133V24.5136Z" stroke="#363636" stroke-width="2" stroke-linecap="round" stroke-linejoin="round"/>
<path d="M35.6595 15.3333C36.5991 15.3333 37.3613 14.5871 37.3613 13.6666C37.3613 12.7461 36.5991 11.9999 35.6595 11.9999C34.7192 11.9999 33.957 12.7461 33.957 13.6666C33.957 14.5871 34.7192 15.3333 35.6595 15.3333Z" fill="#363636"/>
</svg>
