<svg width="48" height="48" viewBox="0 0 48 48" fill="none" xmlns="http://www.w3.org/2000/svg">
<path d="M0 24C0 10.7452 10.7452 0 24 0C37.2548 0 48 10.7452 48 24C48 37.2548 37.2548 48 24 48C10.7452 48 0 37.2548 0 24Z" fill="#F8F8F8"/>
<path d="M24.0281 11C17.1126 11 11.5 16.9733 11.5 24.3333C11.5 31.6933 17.1126 37.6667 24.0281 37.6667C30.9436 37.6667 36.5562 31.6933 36.5562 24.3333C36.5562 16.9733 30.9436 11 24.0281 11ZM29.8412 20.0667C29.6532 22.1733 28.8389 27.2933 28.4255 29.6533C28.2501 30.6533 27.8993 30.9867 27.5736 31.0267C26.8469 31.0933 26.2957 30.52 25.5941 30.0267C24.4917 29.2533 23.8652 28.7733 22.8004 28.0267C21.5601 27.16 22.3619 26.68 23.076 25.9067C23.2639 25.7067 26.4711 22.6 26.5337 22.32C26.5424 22.2776 26.5413 22.2336 26.5304 22.1917C26.5194 22.1499 26.4991 22.1116 26.4711 22.08C26.3959 22.0133 26.2957 22.04 26.208 22.0533C26.0953 22.08 24.3413 23.32 20.9211 25.7733C20.42 26.1333 19.969 26.32 19.5681 26.3067C19.1171 26.2933 18.2652 26.04 17.6262 25.8133C16.837 25.5467 16.2231 25.4 16.2732 24.9333C16.2983 24.6933 16.6115 24.4533 17.2003 24.2C20.8585 22.5067 23.289 21.3867 24.5042 20.8533C27.987 19.3067 28.7011 19.04 29.1772 19.04C29.2774 19.04 29.5154 19.0667 29.6658 19.2C29.791 19.3067 29.8286 19.4533 29.8412 19.56C29.8286 19.64 29.8537 19.88 29.8412 20.0667Z" fill="#363636"/>
</svg>
