<svg width="24" height="25" viewBox="0 0 24 25" fill="none" xmlns="http://www.w3.org/2000/svg">
<g clip-path="url(#clip0_775_11675)">
<path d="M12 0.5C8.81812 0.5 5.76375 1.76506 3.51562 4.01469C1.2652 6.26522 0.000643966 9.31734 0 12.5C0 15.6813 1.26562 18.7357 3.51562 20.9853C5.76375 23.2349 8.81812 24.5 12 24.5C15.1819 24.5 18.2362 23.2349 20.4844 20.9853C22.7344 18.7357 24 15.6813 24 12.5C24 9.31869 22.7344 6.26431 20.4844 4.01469C18.2362 1.76506 15.1819 0.5 12 0.5Z" fill="url(#paint0_linear_775_11675)"/>
<path d="M5.43477 12.374C8.93352 10.85 11.266 9.84527 12.4323 9.35977C15.766 7.97359 16.4579 7.73284 16.9098 7.72468C17.0091 7.72309 17.2304 7.74765 17.3748 7.86437C17.4948 7.96281 17.5285 8.09593 17.5454 8.1894C17.5604 8.28277 17.581 8.49559 17.5641 8.66171C17.3841 10.5592 16.6023 15.1638 16.2048 17.2891C16.0379 18.1884 15.706 18.4899 15.3854 18.5193C14.6879 18.5835 14.1591 18.0588 13.4841 17.6165C12.4285 16.9241 11.8323 16.4932 10.8066 15.8176C9.62165 15.0369 10.3904 14.6077 11.0654 13.9065C11.2416 13.7229 14.3129 10.9301 14.371 10.6768C14.3785 10.6451 14.386 10.527 14.3148 10.4647C14.2454 10.4023 14.1423 10.4236 14.0673 10.4405C13.9604 10.4645 12.2748 11.5798 9.00477 13.7861C8.52665 14.115 8.09352 14.2753 7.70352 14.2668C7.27602 14.2576 6.45102 14.0246 5.8379 13.8255C5.0879 13.5811 4.48977 13.452 4.54227 13.037C4.56852 12.821 4.86665 12.6 5.43477 12.374Z" fill="white"/>
</g>
<defs>
<linearGradient id="paint0_linear_775_11675" x1="1200" y1="0.5" x2="1200" y2="2400.5" gradientUnits="userSpaceOnUse">
<stop stop-color="#2AABEE"/>
<stop offset="1" stop-color="#229ED9"/>
</linearGradient>
<clipPath id="clip0_775_11675">
<rect width="24" height="24" fill="white" transform="translate(0 0.5)"/>
</clipPath>
</defs>
</svg>
