<svg width="48" height="48" viewBox="0 0 48 48" fill="none" xmlns="http://www.w3.org/2000/svg">
<rect width="48" height="48" rx="24" fill="#F8F8F8"/>
<path d="M26.5 24.3321V19.4041C26.5 18.2935 26.2987 18.0708 25.1934 18.0708L22.06 18.0001C21.084 18.0001 20.596 18.0001 20.3987 18.3161C20.2014 18.6321 20.42 19.0655 20.856 19.9295C21.0987 20.4095 21.2294 20.7575 21.2294 21.2961V24.8428C21.2294 25.9628 21.2294 26.5241 20.8027 26.6908C20.376 26.8561 20.0227 26.4801 19.3134 25.7281C17.58 23.8828 16.676 21.5788 16.0827 19.0668C15.96 18.5468 15.8987 18.2868 15.7147 18.1428C15.5307 17.9988 15.268 18.0001 14.7454 18.0001H11.812C11.1694 18.0001 10.848 18.0001 10.6467 18.2268C10.4467 18.4548 10.4854 18.7455 10.5627 19.3255C11.2667 24.5615 15.8707 33.1468 24.376 33.9655C25.8827 34.1095 26.5 33.7028 26.5 32.0521C26.5 31.1161 26.48 29.6041 27.6574 29.4055C28.2747 29.3015 28.6894 29.5215 29.3787 30.0988C30.5734 31.1015 31.2 32.3255 31.636 33.2548C31.9254 33.8708 32.14 34.0001 32.82 34.0001H35.5854C36.9827 34.0001 37.3627 33.6588 36.74 32.3468C36.0363 30.8754 35.04 29.5629 33.812 28.4895C32.964 27.7601 32.5414 27.3961 32.5187 27.1268C32.4934 26.8588 32.804 26.4788 33.4254 25.7188C34.6254 24.2495 36.26 21.9441 37.0227 19.4975C37.4014 18.2841 37.0454 18.0001 35.8174 18.0001H33.3334C32.1294 18.0001 32.1307 17.9588 31.8467 19.3241C31.3854 21.5388 29.876 23.6681 28.4574 25.1175C27.784 25.8055 27.3774 26.2201 26.9574 26.0508C26.5374 25.8815 26.5 25.3668 26.5 24.3321Z" stroke="#363636" stroke-width="2" stroke-linecap="round" stroke-linejoin="round"/>
</svg>
