<svg width="403.000000" height="175.000000" viewBox="0 0 403 175" fill="none" xmlns="http://www.w3.org/2000/svg" xmlns:xlink="http://www.w3.org/1999/xlink">
	<defs>
		<clipPath id="clip49_468">
			<rect id="Layer_1" rx="0.000000" width="402.000000" height="174.000000" transform="translate(0.500000 0.500000)" fill="white" fill-opacity="0"/>
		</clipPath>
	</defs>
	<rect id="Layer_1" rx="0.000000" width="402.000000" height="174.000000" transform="translate(0.500000 0.500000)" fill="#FFFFFF" fill-opacity="0"/>
	<g clip-path="url(#clip49_468)">
		<path id="Vector" d="M401.54 24.71L367.92 1.45L351.11 1.45L330.65 16.35L330.65 22.53L338.32 28.72L338.32 51.26L316.4 56.34L215.18 0L206.38 0L189.64 12.22L168.49 0L131.54 23.55L91.1 21.47L79.48 10.14L67.39 10.14L52.29 21.23L24.86 22.39L0 40.42L52.98 39.5L65.07 51.76L148.97 53.38L159.66 61.37L196.38 61.37L209.16 75.41L238.68 75.41L257.51 85.52L218.46 111.41L196.62 113.26L147.81 83.9L99.7 84.82L77.62 100.55L109.93 101.24L79.48 121.82L109.93 122.74L110.16 142.86L139.44 143.55L139.67 155.11L157.1 154.65L186.39 174.77L197.54 175L228.69 156.96L240.3 157.42L264.71 170.37L321.88 170.14L402.53 118.58L403 75.41L376.73 61.37L376.73 43.43L401.54 24.71Z" fill="#A64040" fill-opacity="1.000000" fill-rule="nonzero"/>
	</g>
</svg>
