<svg width="1440.000000" height="337.999756" viewBox="0 0 1440 338" fill="none" xmlns="http://www.w3.org/2000/svg" xmlns:xlink="http://www.w3.org/1999/xlink">
	<desc>
			Created with Pixso.
	</desc>
	<defs/>
	<path id="Пересечение" d="M0 84.1949L0 0L343.151 0L343.151 234.923L154.985 234.923L154.985 167.923L111.958 167.923L111.958 268L351.241 268L649.223 0L995.629 0L995.629 234.923L807.464 234.923L807.464 167.923L764.436 167.923L764.436 268L1023.16 268L1290.32 0L1440 0L1440 70L1319.38 70L1052.22 338L694.436 338L694.436 97.9231L877.464 97.9231L877.464 164.923L925.629 164.923L925.629 70L676.071 70L378.089 338L41.9575 338L41.9575 97.9231L224.985 97.9231L224.985 164.923L273.151 164.923L273.151 70L17.462 70L0 84.1949ZM1440 268L1440 338L1357.19 338L1357.19 97.9231L1440 97.9231L1440 167.923L1427.19 167.923L1427.19 268L1440 268Z" clip-rule="evenodd" fill="#A64040" fill-opacity="1.000000" fill-rule="evenodd"/>
</svg>
