<svg width="20" height="20" viewBox="0 0 20 20" fill="none" xmlns="http://www.w3.org/2000/svg">
<path d="M9.99935 10H10.0077M13.3327 5.00002V3.33335C13.3327 2.89133 13.1571 2.4674 12.8445 2.15484C12.532 1.84228 12.108 1.66669 11.666 1.66669H8.33268C7.89066 1.66669 7.46673 1.84228 7.15417 2.15484C6.84161 2.4674 6.66602 2.89133 6.66602 3.33335V5.00002M18.3327 10.8334C15.86 12.4658 12.9623 13.3361 9.99935 13.3361C7.03639 13.3361 4.13869 12.4658 1.66602 10.8334M3.33268 5.00002H16.666C17.5865 5.00002 18.3327 5.74621 18.3327 6.66669V15C18.3327 15.9205 17.5865 16.6667 16.666 16.6667H3.33268C2.41221 16.6667 1.66602 15.9205 1.66602 15V6.66669C1.66602 5.74621 2.41221 5.00002 3.33268 5.00002Z" stroke="white" stroke-width="2" stroke-linecap="round" stroke-linejoin="round"/>
</svg>
