<svg width="20" height="20" viewBox="0 0 20 20" fill="none" xmlns="http://www.w3.org/2000/svg">
<g clip-path="url(#clip0_578_224)">
<path d="M17.6747 13.2417C17.1445 14.4954 16.3153 15.6002 15.2596 16.4594C14.2038 17.3186 12.9537 17.9062 11.6184 18.1706C10.2831 18.4351 8.90337 18.3684 7.59981 17.9765C6.29624 17.5845 5.10854 16.8792 4.14053 15.9222C3.17253 14.9652 2.4537 13.7856 2.04688 12.4866C1.64006 11.1876 1.55765 9.80873 1.80685 8.47052C2.05605 7.13231 2.62926 5.87552 3.47639 4.81002C4.32351 3.74452 5.41875 2.90276 6.66635 2.35833M17.4997 9.99999C17.9597 9.99999 18.3372 9.62583 18.2914 9.16833C18.0992 7.25513 17.2514 5.46725 15.8916 4.10776C14.5318 2.74828 12.7438 1.90086 10.8305 1.70916C10.3722 1.66333 9.99885 2.04083 9.99885 2.50083V9.16749C9.99885 9.38851 10.0866 9.60047 10.2429 9.75675C10.3992 9.91303 10.6112 10.0008 10.8322 10.0008L17.4997 9.99999Z" stroke="white" stroke-width="2" stroke-linecap="round" stroke-linejoin="round"/>
</g>
<defs>
<clipPath id="clip0_578_224">
<rect width="20" height="20" fill="white"/>
</clipPath>
</defs>
</svg>
